<svg xmlns="http://www.w3.org/2000/svg" width="24" height="24" viewBox="0 0 24 24" fill="currentColor" aria-hidden="true">
  <path d="M12 .5A11.5 11.5 0 0 0 .5 12c0 5.07 3.29 9.36 7.86 10.88.58.11.79-.25.79-.55l-.01-2.17c-3.2.7-3.87-1.37-3.87-1.37-.53-1.36-1.29-1.73-1.29-1.73-1.06-.72.08-.71.08-.71 1.18.08 1.8 1.22 1.8 1.22 1.05 1.8 2.76 1.28 3.43.98.11-.77.41-1.28.74-1.58-2.55-.29-5.23-1.28-5.23-5.68 0-1.25.45-2.27 1.19-3.07-.12-.29-.52-1.46.11-3.05 0 0 .98-.31 3.2 1.18a11.1 11.1 0 0 1 2.92-.39c.99 0 1.99.13 2.92.39 2.22-1.49 3.2-1.18 3.2-1.18.63 1.59.23 2.76.11 3.05.74.8 1.19 1.82 1.19 3.07 0 4.41-2.68 5.39-5.24 5.67.42.36.79 1.08.79 2.19l-.01 3.25c0 .3.2.67.8.55A11.51 11.51 0 0 0 23.5 12 11.5 11.5 0 0 0 12 .5z"></path>
</svg>
